<?xml version="1.0" standalone="no"?>
<!DOCTYPE svg PUBLIC "-//W3C//DTD SVG 20010904//EN"
 "http://www.w3.org/TR/2001/REC-SVG-20010904/DTD/svg10.dtd">
<svg version="1.0" xmlns="http://www.w3.org/2000/svg"
 width="300.000000pt" height="78.000000pt" viewBox="0 0 300.000000 78.000000"
 preserveAspectRatio="xMidYMid meet">
<metadata>
Created by potrace 1.10, written by Peter Selinger 2001-2011
</metadata>
<g transform="translate(0.000000,78.000000) scale(0.100000,-0.100000)"
fill="#000000" stroke="none">
<path d="M168 733 c-16 -4 -18 -21 -18 -174 l0 -169 130 0 130 0 0 35 0 35
-85 0 -85 0 0 29 c0 34 14 41 80 41 39 0 52 4 60 20 17 32 4 40 -71 40 l-69 0
0 35 0 35 80 0 80 0 0 40 0 40 -107 -1 c-60 -1 -116 -3 -125 -6z m52 -158 c12
-23 12 -28 -8 -48 l-22 -21 0 47 c0 52 10 60 30 22z"/>
<path d="M1815 723 c-42 -21 -65 -53 -65 -89 0 -39 26 -67 101 -105 43 -21 59
-35 57 -47 -4 -23 -42 -27 -88 -8 -38 15 -40 15 -55 -6 -22 -32 -19 -46 13
-62 72 -37 153 -27 196 25 53 62 24 122 -79 163 -43 17 -60 29 -60 42 0 24 29
29 77 13 35 -11 40 -10 53 7 24 32 18 51 -25 68 -50 20 -86 20 -125 -1z"/>
<path d="M795 708 c-2 -7 -5 -22 -7 -33 -2 -14 -12 -21 -36 -23 -31 -3 -33 -6
-30 -35 3 -28 7 -32 36 -35 l32 -3 0 -95 0 -94 41 0 42 0 -7 98 -7 98 35 -4
c31 -4 36 -1 41 21 9 36 -1 47 -41 47 -31 0 -34 3 -34 29 0 28 -14 41 -46 41
-8 0 -16 -6 -19 -12z m51 -103 c-3 -9 -14 -15 -23 -13 -22 4 -30 38 -11 49 18
11 43 -15 34 -36z"/>
<path d="M1295 708 c-2 -7 -5 -22 -7 -33 -2 -13 -13 -22 -33 -25 -25 -4 -30
-10 -30 -35 0 -27 4 -30 33 -33 l32 -3 0 -95 0 -94 35 0 35 0 0 95 0 94 36 7
c31 6 35 10 32 33 -2 20 -9 27 -31 29 -19 2 -32 12 -40 30 -18 41 -53 57 -62
30z m50 -78 c4 -6 1 -18 -6 -26 -11 -13 -14 -13 -27 0 -8 8 -11 19 -8 25 9 14
33 14 41 1z"/>
<path d="M495 629 c-58 -52 -43 -90 53 -133 73 -33 60 -65 -17 -39 -33 11 -46
12 -57 2 -22 -18 -16 -37 18 -55 67 -35 168 5 168 67 0 31 -14 45 -83 79 -27
14 -49 30 -48 35 1 6 23 9 50 7 41 -3 51 0 60 16 15 28 15 29 -20 41 -54 19
-86 13 -124 -20z"/>
<path d="M2614 650 c-11 -4 -34 -24 -52 -44 -54 -61 -42 -147 27 -193 50 -34
114 -29 166 12 20 16 20 16 -4 36 -15 12 -31 17 -40 13 -40 -17 -69 -16 -90 5
-26 26 -27 62 -3 84 22 20 73 22 91 5 10 -11 15 -9 27 6 24 33 17 53 -26 70
-44 18 -65 19 -96 6z"/>
<path d="M1010 523 c-33 -69 -60 -128 -60 -130 0 -1 15 -3 34 -3 23 0 38 7 48
22 11 17 24 21 63 21 39 0 52 -4 63 -21 10 -15 25 -22 48 -22 19 0 34 1 34 3
0 9 -103 234 -112 245 -6 6 -21 12 -34 12 -21 0 -32 -17 -84 -127z m110 -15
c0 -13 -8 -18 -25 -18 -28 0 -32 18 -14 52 11 21 12 21 25 3 8 -10 14 -27 14
-37z"/>
<path d="M1510 620 c-52 -55 -49 -150 6 -201 21 -20 36 -24 83 -24 35 0 65 6
75 14 15 13 15 15 0 32 -13 14 -26 17 -53 13 -26 -3 -44 1 -66 15 l-30 21 61
0 c97 0 124 8 124 37 0 31 -26 83 -54 105 -13 11 -39 18 -69 18 -42 0 -53 -5
-77 -30z m115 -50 c18 -20 17 -20 -16 -21 -66 -2 -78 3 -59 26 17 21 53 19 75
-5z"/>
<path d="M2059 573 c63 -126 72 -183 29 -183 -16 0 -19 -6 -16 -37 3 -44 25
-54 63 -29 17 11 31 40 50 103 29 95 55 152 77 171 19 15 58 -11 58 -39 0 -20
-34 -27 -45 -9 -16 26 -24 3 -27 -75 l-3 -85 31 0 c36 0 44 16 44 94 l0 49 31
-44 c53 -75 81 -99 111 -99 l28 0 0 130 0 130 -35 0 -35 0 0 -61 c0 -33 -4
-59 -9 -57 -4 2 -28 28 -53 58 -43 54 -45 55 -100 58 l-57 3 -21 -48 c-23 -52
-24 -52 -62 16 -15 27 -23 31 -58 31 l-40 0 39 -77z m111 -55 c0 -16 -17 -44
-23 -38 -3 3 -8 15 -11 28 -6 18 -3 22 13 22 12 0 21 -6 21 -12z m280 -33 c0
-40 -12 -45 -34 -13 -14 19 -14 23 2 34 26 21 32 17 32 -21z"/>
<path d="M160 212 c0 -21 2 -41 5 -44 3 -3 20 8 37 23 25 24 28 32 18 44 -7 8
-23 15 -36 15 -21 0 -24 -5 -24 -38z"/>
<path d="M250 210 c0 -38 12 -52 25 -29 5 6 11 4 19 -7 12 -15 13 -16 19 0 4
9 4 30 0 46 -4 25 -10 30 -34 30 -27 0 -29 -3 -29 -40z"/>
<path d="M350 229 c-9 -16 -8 -26 5 -45 8 -13 22 -24 30 -24 19 0 45 28 45 49
0 41 -61 57 -80 20z m49 -13 c8 -10 9 -16 1 -21 -13 -8 -30 3 -30 21 0 18 14
18 29 0z"/>
<path d="M450 205 l0 -46 30 23 c39 28 37 62 -2 66 -27 3 -28 2 -28 -43z"/>
<path d="M540 216 c0 -38 21 -61 47 -51 17 6 17 7 -1 17 -15 8 -16 12 -5 19
12 8 12 11 -1 19 -13 8 -12 10 3 10 9 0 17 5 17 10 0 6 -13 10 -30 10 -27 0
-30 -3 -30 -34z"/>
<path d="M620 211 c0 -38 14 -63 22 -40 3 9 9 9 26 0 21 -11 22 -10 22 34 0
45 0 45 -35 45 -34 0 -35 -1 -35 -39z"/>
<path d="M710 242 c0 -4 4 -12 9 -17 5 -6 11 -20 13 -33 5 -35 23 -31 26 6 3
29 6 33 30 30 18 -2 28 -10 30 -23 2 -11 5 -27 8 -35 4 -13 6 -13 14 0 6 8 10
25 10 38 0 12 5 22 10 22 6 0 10 5 10 10 0 6 -33 10 -80 10 -44 0 -80 -4 -80
-8z"/>
<path d="M880 246 c0 -2 6 -16 14 -31 8 -15 12 -34 9 -42 -4 -11 0 -14 13 -11
11 2 20 13 22 28 2 14 9 31 14 38 15 18 2 27 -17 12 -12 -10 -19 -10 -27 -2
-12 12 -28 16 -28 8z"/>
<path d="M1050 205 c0 -25 5 -45 10 -45 6 0 10 7 10 15 0 8 4 15 9 15 5 0 17
3 27 7 11 4 15 3 10 -5 -3 -6 -2 -13 3 -17 11 -6 27 62 17 72 -3 3 -15 -2 -27
-13 -19 -17 -21 -18 -30 -1 -17 30 -29 18 -29 -28z"/>
<path d="M1185 220 c-24 -45 -20 -62 10 -48 19 8 28 8 40 -2 20 -16 20 -1 1
45 -18 43 -31 44 -51 5z"/>
<path d="M1290 211 c0 -22 5 -43 10 -46 6 -4 10 6 10 22 l0 28 24 -30 c21 -27
24 -28 30 -10 3 11 2 34 -3 50 -8 25 -9 26 -10 8 -1 -28 -12 -29 -29 -3 -19
31 -32 24 -32 -19z"/>
<path d="M1406 209 c-19 -47 -16 -56 12 -38 17 10 23 10 36 -1 9 -7 19 -10 22
-7 7 7 -34 87 -45 87 -5 0 -16 -19 -25 -41z"/>
<path d="M1500 210 c0 -22 5 -40 10 -40 6 0 10 18 10 40 0 22 -4 40 -10 40 -5
0 -10 -18 -10 -40z"/>
<path d="M1557 243 c-16 -15 -6 -63 14 -73 28 -16 51 -5 47 22 -4 25 -28 37
-28 14 0 -9 -5 -16 -11 -16 -20 0 -4 35 19 38 12 2 22 8 22 13 0 10 -53 12
-63 2z"/>
<path d="M1650 221 c0 -42 9 -61 30 -61 28 0 33 17 7 24 -21 7 -21 8 -2 15 19
8 19 8 0 19 -17 10 -17 11 -3 12 31 0 30 20 -1 20 -28 0 -31 -3 -31 -29z"/>
<path d="M1727 244 c-10 -10 -9 -72 2 -78 5 -3 12 5 15 18 7 27 -6 71 -17 60z"/>
<path d="M1770 205 c0 -26 5 -45 11 -45 6 0 9 9 6 19 -7 27 30 24 38 -4 6 -20
6 -20 17 2 12 24 3 73 -12 73 -6 0 -10 -7 -10 -15 0 -8 -4 -15 -9 -15 -5 0
-11 7 -15 15 -11 30 -26 14 -26 -30z"/>
<path d="M1860 222 c0 -40 22 -67 46 -58 17 7 17 9 -6 18 -23 9 -24 10 -7 23
13 10 15 14 5 18 -8 3 -6 6 5 6 27 1 10 21 -19 21 -20 0 -24 -5 -24 -28z"/>
<path d="M1940 205 c0 -25 5 -45 10 -45 6 0 10 12 10 26 l0 25 25 -28 24 -28
1 48 c0 26 -4 47 -10 47 -5 0 -10 -7 -10 -15 0 -8 -4 -15 -9 -15 -5 0 -11 7
-15 15 -11 30 -26 14 -26 -30z"/>
<path d="M2030 240 c0 -5 6 -10 14 -10 9 0 16 -12 18 -32 2 -17 9 -34 17 -36
11 -4 13 2 8 27 -5 23 -3 33 8 37 28 11 15 24 -25 24 -22 0 -40 -4 -40 -10z"/>
<path d="M2200 230 c0 -10 8 -24 18 -29 15 -9 15 -10 -5 -11 -13 0 -23 -4 -23
-9 0 -14 33 -19 59 -9 l24 8 -23 25 c-20 21 -21 25 -7 25 9 0 17 5 17 10 0 6
-13 10 -30 10 -23 0 -30 -4 -30 -20z"/>
<path d="M2290 248 c0 -2 7 -21 14 -43 16 -45 36 -58 36 -23 0 13 7 34 16 46
12 18 12 22 2 22 -8 0 -19 -5 -25 -11 -8 -8 -13 -8 -17 0 -6 9 -26 16 -26 9z"/>
<path d="M2390 238 c0 -6 7 -20 17 -30 15 -17 15 -18 0 -18 -24 0 -21 -17 3
-25 42 -13 57 34 18 53 l-23 11 23 0 c34 1 26 21 -8 21 -16 0 -30 -5 -30 -12z"/>
<path d="M2480 241 c0 -6 5 -13 10 -16 6 -3 10 -19 10 -36 0 -16 5 -29 10 -29
6 0 10 14 10 30 0 18 6 33 15 36 27 11 16 24 -20 24 -19 0 -35 -4 -35 -9z"/>
<path d="M2574 219 c3 -17 6 -38 6 -45 0 -16 46 -19 55 -4 3 6 -1 10 -10 10
-12 0 -15 5 -11 17 4 9 1 20 -6 25 -10 6 -8 8 5 8 9 0 17 5 17 10 0 6 -14 10
-31 10 -30 0 -31 -2 -25 -31z"/>
<path d="M2665 239 c-9 -14 4 -79 15 -79 6 0 10 12 10 28 0 18 3 23 8 14 5 -7
16 -10 25 -6 13 4 17 1 17 -15 0 -12 5 -21 10 -21 6 0 10 20 10 45 0 49 -5 53
-37 30 -19 -13 -22 -13 -27 0 -6 17 -22 20 -31 4z"/>
</g>
</svg>
